<svg width="16" height="14" viewBox="0 0 16 14" fill="none" xmlns="http://www.w3.org/2000/svg">
<path fill-rule="evenodd" clip-rule="evenodd" d="M8.82333 0.828125C8.82333 0.413911 8.48754 0.078125 8.07333 0.078125C7.65911 0.078125 7.32333 0.413911 7.32333 0.828125V6.1677H1.11987C0.705659 6.1677 0.369873 6.50349 0.369873 6.9177C0.369873 7.33191 0.705659 7.6677 1.11987 7.6677H7.32333V13.0112C7.32333 13.4254 7.65911 13.7612 8.07333 13.7612C8.48754 13.7612 8.82333 13.4254 8.82333 13.0112V7.6677H15.0289C15.4431 7.6677 15.7789 7.33191 15.7789 6.9177C15.7789 6.50349 15.4431 6.1677 15.0289 6.1677H8.82333V0.828125Z" fill="white"/>
</svg>
