<svg width="12" height="13" viewBox="0 0 12 13" fill="none" xmlns="http://www.w3.org/2000/svg">
<path d="M11.5321 9.27661C12.156 9.90046 12.156 10.9096 11.5321 11.5317C11.2202 11.8436 10.8165 12.0106 10.3945 12.0106C9.99083 12.0106 9.58716 11.8638 9.27523 11.5317L6.00917 8.28578L2.74312 11.5317C2.43119 11.8436 2.02752 12.0106 1.6055 12.0106C1.20183 12.0106 0.779816 11.8436 0.46789 11.5317C-0.155963 10.9096 -0.155963 9.90046 0.46789 9.25826L3.73395 6.01055L0.46789 2.74266C-0.155963 2.12064 -0.155963 1.09312 0.46789 0.469266C1.09174 -0.156422 2.10092 -0.156422 2.74312 0.469266L6.00917 3.73349L9.25688 0.469266C9.89908 -0.156422 10.9083 -0.156422 11.5321 0.469266C12.156 1.09312 12.156 2.12064 11.5321 2.74266L8.26606 6.01055L11.5321 9.27661Z" fill="white"/>
</svg>
