<svg width="21" height="22" viewBox="0 0 21 22" fill="none" xmlns="http://www.w3.org/2000/svg">
<path d="M9.5921 1.5386H5.8531C2.7781 1.5386 0.850098 3.7156 0.850098 6.7976V15.1116C0.850098 18.1936 2.7691 20.3706 5.8531 20.3706H14.6771C17.7621 20.3706 19.6811 18.1936 19.6811 15.1116V11.0836" stroke="white" stroke-width="1.5" stroke-linecap="round" stroke-linejoin="round"/>
<path fill-rule="evenodd" clip-rule="evenodd" d="M6.92749 9.6705L14.4005 2.1975C15.3315 1.2675 16.8405 1.2675 17.7715 2.1975L18.9885 3.4145C19.9195 4.3455 19.9195 5.8555 18.9885 6.7855L11.4795 14.2945C11.0725 14.7015 10.5205 14.9305 9.94449 14.9305H6.19849L6.29249 11.1505C6.30649 10.5945 6.53349 10.0645 6.92749 9.6705Z" stroke="white" stroke-width="1.5" stroke-linecap="round" stroke-linejoin="round"/>
<path d="M13.2649 3.3521L17.8309 7.9181" stroke="white" stroke-width="1.5" stroke-linecap="round" stroke-linejoin="round"/>
</svg>
