<svg width="554" height="554" viewBox="0 0 554 554" fill="none" xmlns="http://www.w3.org/2000/svg">
<g opacity="0.75" filter="url(#filter0_i_104_125)">
<path fill-rule="evenodd" clip-rule="evenodd" d="M277 554C429.983 554 554 429.983 554 277C554 124.017 429.983 0 277 0C124.017 0 0 124.017 0 277C0 429.983 124.017 554 277 554ZM277 472.485C384.964 472.485 472.485 384.963 472.485 277C472.485 169.037 384.964 81.515 277 81.515C169.037 81.515 81.5152 169.037 81.5152 277C81.5152 384.963 169.037 472.485 277 472.485Z" fill="url(#paint0_linear_104_125)"/>
</g>
<defs>
<filter id="filter0_i_104_125" x="0" y="-6.03815" width="554" height="560.038" filterUnits="userSpaceOnUse" color-interpolation-filters="sRGB">
<feFlood flood-opacity="0" result="BackgroundImageFix"/>
<feBlend mode="normal" in="SourceGraphic" in2="BackgroundImageFix" result="shape"/>
<feColorMatrix in="SourceAlpha" type="matrix" values="0 0 0 0 0 0 0 0 0 0 0 0 0 0 0 0 0 0 127 0" result="hardAlpha"/>
<feOffset dy="-31.7003"/>
<feGaussianBlur stdDeviation="3.01907"/>
<feComposite in2="hardAlpha" operator="arithmetic" k2="-1" k3="1"/>
<feColorMatrix type="matrix" values="0 0 0 0 0.8625 0 0 0 0 0.265938 0 0 0 0 0.265938 0 0 0 0.25 0"/>
<feBlend mode="normal" in2="shape" result="effect1_innerShadow_104_125"/>
</filter>
<linearGradient id="paint0_linear_104_125" x1="110.196" y1="-1.31934e-05" x2="482.297" y2="639.289" gradientUnits="userSpaceOnUse">
<stop stop-color="#A3C2FF"/>
<stop offset="1" stop-color="#F03FE9"/>
</linearGradient>
</defs>
</svg>
