<svg width="26" height="25" viewBox="0 0 26 25" fill="none" xmlns="http://www.w3.org/2000/svg">
<path fill-rule="evenodd" clip-rule="evenodd" d="M18.6193 8.73104H23.0267C23.0267 5.19228 20.9063 3.125 17.3137 3.125H7.90632C4.31373 3.125 2.19336 5.19228 2.19336 8.6859V16.3141C2.19336 19.8077 4.31373 21.875 7.90632 21.875H17.3137C20.9063 21.875 23.0267 19.8077 23.0267 16.3141V15.9891H18.6193C16.5738 15.9891 14.9156 14.3724 14.9156 12.3781C14.9156 10.3838 16.5738 8.76715 18.6193 8.76715V8.73104ZM18.6192 10.2838H22.2488C22.6784 10.2838 23.0266 10.6233 23.0266 11.0421V13.6781C23.0216 14.0948 22.6763 14.4315 22.2488 14.4364H18.7025C17.667 14.45 16.7615 13.7587 16.5266 12.7753C16.409 12.1649 16.5741 11.535 16.9777 11.0544C17.3813 10.5738 17.9822 10.2917 18.6192 10.2838ZM18.7766 13.0552H19.1192C19.559 13.0552 19.9155 12.7076 19.9155 12.2788C19.9155 11.8501 19.559 11.5025 19.1192 11.5025H18.7766C18.5663 11.5001 18.3637 11.5798 18.2141 11.724C18.0645 11.8682 17.9803 12.0647 17.9803 12.2698C17.9803 12.7001 18.3354 13.0502 18.7766 13.0552ZM7.12859 8.73103H13.0082C13.448 8.73103 13.8045 8.38344 13.8045 7.95467C13.8045 7.5259 13.448 7.17831 13.0082 7.17831H7.12859C6.6924 7.17828 6.33737 7.5204 6.3323 7.94564C6.33227 8.3759 6.68732 8.72609 7.12859 8.73103Z" fill="white"/>
</svg>
